# xmcd
#
# Track frame offsets:
#	150
#	10842
#	38372
#	67631
#	98960
#	115344
#	140129
#	165332
#	185391
#	204764
#	228806
#
# Disc length: 3227 seconds
#
# Revision: 2
# Processed by: cddbd v1.5.2PL0 Copyright (c) Steve Scherf et al.
# Submitted via: EZCDAudioConverter 8.0.2.1
#
DISCID=7b0c990b
DTITLE=Hoài Phương - Tinh Xa
DYEAR=2011
DGENRE=
TTITLE0=The Old Path to the Summit (Lối mòn lên đỉnh núi)
TTITLE1=Mười năm tình cũ (Old Love)
TTITLE2=Niệm khúc cuối (The Last Wish)
TTITLE3=Duyên tình xót xa (Bitter Love)
TTITLE4=Bèo dạt mây trôi (Drifting Blossoms Floating Clouds)
TTITLE5=Sunrise from the West (Mặt trời mọc hướng tây)
TTITLE6=Chiếc lá cuối cùng (The Last Leave)
TTITLE7=Chớ quên anh nhé em (Forget Me Not)
TTITLE8=Diễm xưa (Old Diem)
TTITLE9=Trả nợ tình xa (Pay Back to Distant Love)
TTITLE10=True Heart (Thật lòng)
EXTD=
EXTT0=
EXTT1=
EXTT2=
EXTT3=
EXTT4=
EXTT5=
EXTT6=
EXTT7=
EXTT8=
EXTT9=
EXTT10=
PLAYORDER=
